<svg xmlns="http://www.w3.org/2000/svg" viewBox="0 0 649.42 433.98"><defs><style>.cls-1{fill:#ff934a;}.cls-2{fill:#fff;}</style></defs><g id="Layer_2" data-name="Layer 2"><g id="Layer_1-2" data-name="Layer 1"><path class="cls-1" d="M193.35,0c3.31,2.48,2.12,5.05.18,7.67-16.64,22.48-33.05,45.13-48.87,68.19-10.83,15.8-21.83,31.5-30.14,48.86a41,41,0,0,0-4,14.09c-.51,5.85,1.07,9.6,6.48,14,19.61,15.8,42.76,25.46,63.59,39,2.3,1.49,4.22,2.23,6.51,0,11.43-10.87,24.69-19.48,36.76-29.55,3.6-3,7.53-5.61,11.13-8.59,3.14-2.6,6.16-2.65,9.19-.12,9.51,7.92,20.18,14.48,28.42,23.9,2.86,3.27,6,2.93,9,.83,8.2-5.6,16.3-11.36,24.4-17.11a12.49,12.49,0,0,0,2.86-2.76c14.81-20.38,37.92-30.85,56.25-47,3.92-3.46,7.36-1.78,10.73,1.73q28.89,30.11,58.07,59.93c6.72,6.85,13.9,13.26,20.94,19.79,3.33,3.09,6.26,3.77,10.92.93,19.53-11.91,39.52-23.07,59.25-34.65,4.61-2.7,8-7,12.44-10.13,3.45-2.41,2.55-7.31,1.82-11.24-2-11-7.49-20.52-13.24-29.83-5.21-8.42-10.07-17.09-16.53-24.67-.09-3-2.69-4.41-4.14-6.49C495.71,63,485.83,49.27,476,35.54c-5.95-9.78-13.19-18.65-19.84-27.93-1.34-1.87-3.25-4-1.28-6,2.2-2.18,4.43-.31,6.33,1.38A561.54,561.54,0,0,1,566.92,128.25c1.77,2.86,4,3.84,6.47,3.26,6.73-1.57,10.34,2.47,13.52,7,4.7,6.7,16.6,21.74,8.83,30-2.46,2.61-2.62,5.6-.91,8.67,22.95,41.32,39,87.49,49.8,133.27,1.73,7.33,3.09,14.75,4.45,22.16.35,1.91,1.06,4.57-1.84,5.19s-3.77-1.94-4.67-4c-11.61-26.65-22.37-53.17-34.23-79.67-8.32-18.56-18.7-42.56-34-56.42-3.63-3.29-7.69-7.33-12.66-6.06a71.8,71.8,0,0,0-13.93,5.13c-13.57,6.77-26.45,14.92-39.6,22.53-.89.76-3.64.43-2.2,2.47.84,1.2,2.53,0,3.32-1.35a3.25,3.25,0,0,0,1.56-1.06s22-.63,33.46-.57c12.17.06,24.56-.88,28.89,7.37,4.11,7.8,4.35,21.52-4.07,24.86,2.07,30.31,2,58.77,2.28,81.37,0,1.29.35,12.52,1.21,13.6,7.56,9.48,5.63,27.58-18.7,27.7-16.8.09-34.1-.09-50.9,0-1.5,0-3.82-1.09-4.38,1.22s2,2.25,3.36,3c12.59,7.48,25.15,15,37.85,22.31,3.88,2.23,4.32,5.09,2.25,8.38-4.37,7-7.26,14.74-12.18,21.42-2.64,3.58-5,4.92-9.35,2.43-21.69-12.35-43.52-24.46-65.3-36.64-11.6-6.49-23.24-12.91-34.8-19.48a23.29,23.29,0,0,0-12-2.75c-55.6,0-111.2.13-166.8-.09-8.71,0-15.49,4.16-22.45,8.07-29.47,16.54-58.78,33.35-88.2,50-6.85,3.87-8.28,3.45-12.66-3.41-3.61-5.65-7-11.47-10.42-17.22a4.81,4.81,0,0,0-1.72-3.86,7.6,7.6,0,0,1,1.79-6.21,8.19,8.19,0,0,0,6.37-1.66c9.9-7.52,20.88-13.34,31.31-20,2-1.3,6.46-1.7,5.45-4.72-1.08-3.23-4.84-1.27-7.53-1-18,2-38.42-.36-57.75.1-17.06.4-21.5-16.28-15.68-27.19a23.46,23.46,0,0,0,2.94-11.72c-.08-25.62-.05-51.25,0-76.87,0-2.46.15-4.88-1.74-6.94-6.55-7.19-5.25-15.67-2.48-23.53,2.27-6.48,8.51-8.64,15.23-8.65,15.56,0,31.13,0,46.69,0,1.81,0,4.56.8,5.12-1.11.68-2.32-2.26-3.14-3.87-4.06q-14.18-8.08-28.57-15.8c-5-2.67-10.67-4.08-16-6-4.41-1.61-9,2.85-12.5,6.27-9.25,8.91-14.75,20.3-20.52,31.49C37,263.58,22.37,299.09,6.79,334.15c-1,2.25-1.92,4.41-4.72,3.49-2.49-.82-2.22-3.12-1.79-5.29a568.12,568.12,0,0,1,19-71.62c8.87-26.2,19-51.86,31.7-76.45.94-1.82,1.93-3.63,3-5.37,2.41-3.91,2.59-7.51-.71-11.17-2.67-3-2.52-6.3-1-10a110.91,110.91,0,0,1,9.81-18.34c3.38-5.27,7.45-9.45,14.76-7.92,2.28.48,4-.49,5.71-3.16A571.51,571.51,0,0,1,179.46,11.07c1-.89,1.77-2,2.65-3C186.3,6,188.75,1.53,193.35,0ZM160.59,39.11c-2.94-.6-3.67,1-3.39,3.48-2.24-.17-3.46.9-3.75,3.1a9.57,9.57,0,0,0-2.34,1.43c-23.32,26.22-45.48,53.33-63.48,83.58-.86,1.45-3.68,2.7-.19,4.74,2.9,1.71,3.72.47,5.15-1.82a744.76,744.76,0,0,1,43-62.47C141.9,63,148,54.76,154.21,46.56c2-.63,2.68-2.18,2.87-4.08A3.68,3.68,0,0,0,160.47,39c1.95-.72,3-2.14,4-5.47C162,35.84,159.39,36.08,160.59,39.11Zm334.67,6.83c0-4-3-5.27-6.93-7.82,2.29,4.15,4.41,6.19,7.05,7.73-.17,2.72,2.35,3.8,3.65,5.49,20.58,26.76,41,53.63,58.1,82.83,1.12,1.92,2.63,3.05,5.09,1.28s1.09-2.89.06-4.6c-18.34-30.29-40.38-57.75-64.1-83.94C497.47,46.12,496.57,45.25,495.26,45.94ZM240.91,183.48l-10.1,15.36a3.16,3.16,0,0,0-2.41,2.9C223,207,218.7,213.1,214,218.92l-1-1.07c.87-3.27,2.78-6,4.33-9,2.31-4.36,6-8.18,5.59-13.67.58-1.13,1.26-3,.12-3.31-1.47-.38-2.69,1.13-2.88,2.9a5.79,5.79,0,0,0-3,4,3.17,3.17,0,0,0-2.4,2.94c-3.34,3.69-6.15,8.15-10.14,10.91-9.79,6.77-13.88,17-18.15,27.23-1.26.62-2.1,1.48-1.81,3l-.12,2.26c-.34,1.78.41,2.54,2.18,2.36,1.77,1,3.71.58,5.57.58q37.14,0,74.3,0c1.86,0,3.79.39,5.57-.55h45.55a35.32,35.32,0,0,0,4.45.54q70.53,0,141.08,0a21.44,21.44,0,0,0,2.27-.06c4.52-.46,6.11-3.07,3.13-6.35-10-11-18.24-23.83-30.87-32.37a66.11,66.11,0,0,1-18.12-18c-6.15-9.07-11.25-19.19-20.58-25.79a83.21,83.21,0,0,1-14.07-12c-1.76-2-2.89-6.22-5.89-5.18-2.59.9-2.54,5-3.38,7.83-2.6,8.66-3.88,18.07-8.24,25.73-5,8.78-14.21,14.43-22.21,21.15,3.81-13,13.35-24.37,10.28-39-1.65-.3-2.48.8-3.09,1.54-6,7.19-12.23,14.22-17.63,21.84-5.17,7.28-12.84,11.93-18.27,18.84-5.17,5.71-15.95,8.7-9.52,20,1.18,2.08-1,3.09-2.26,2-3.1-2.6-8.38-3.4-8.25-9,.06-2.32-1.45-2.29-3.07-2.11-5.94.63-9.71-3-12.52-7.27-7.74-11.78-15.16-23.81-28.27-30.49-2.52-1.29-3.07-6.33-6.46-4.51-2.28,1.23-3.3,4.82-4.87,7.37A5.18,5.18,0,0,0,240.91,183.48ZM120.28,163.61c-4.34.79-5,5.13-7.12,8-1.6,2.19,1.22,2.82,2.44,3.51,16.57,9.5,33.32,18.69,49.77,28.37,7.61,4.48,6.3,4.88,13.17-2.29,2.33-2.43,2-3.32-.54-4.76q-24.13-13.82-48.19-27.74C126.75,166.9,123.89,164.78,120.28,163.61Zm346.84,35.56c2.66,1.56,4.48,2.49,6.15,3.63,4.58,3.13,8.67,2.45,13.36-.36,14.75-8.88,29.77-17.32,44.67-25.95,6.47-3.75,6.32-3.68,2-9.94-2.05-3-4.09-3.5-7.07-1.6-2.21,1.41-4.57,2.59-6.84,3.9Zm0,175.53c.58.8.41,1.92,1.73,2.48,8,3.35,14.79,8.8,22.48,12.76,12.8,6.58,25.05,14.25,37.62,21.3,1.37.77,3,3.08,5,1,1.59-1.64,2.91-3.6,2.68-6.05-.28-3-3.13-3.59-5.09-4.76-11.09-6.59-22.56-12.6-33.4-19.57C488.6,375.75,478.83,372.28,467.13,374.7Zm-281.79-.46c-12-1.43-22.16-1.11-30.88,6.19-1.84,1.54-4.2,2.46-6.32,3.67-10.4,5.95-20.9,11.76-31.14,18-2.16,1.31-6,2.36-3.38,7.19,2.93,5.53,5.77,2.89,8.91,1.12q17.16-9.74,34.24-19.58C166,385.52,175.12,380.17,185.34,374.24Zm397.58-218c-2.14-6.47-6.23-11.33-9.95-16.39-1.73-2.35-3.92-2.12-6.44-.65q-14,8.24-28.27,16.09c-3.28,1.8-3.16,4.45-1.42,6.5s1.77,7.56,7.07,4.53c6.8-3.89,14.11-7,20.47-11.54,6.62-4.7,12-6.3,17.18,1.45C581.61,156.32,581.92,156.24,582.92,156.24ZM66.58,154.41c2.42,1.69,3.78.56,4.63-1,2.35-4.23,5.21-3.77,8.84-1.64,8.39,4.9,17,9.37,25.34,14.37,5.22,3.14,5.38-1.83,7.16-4,2-2.51,2.33-4.94-1.13-6.87-9.44-5.24-18.85-10.54-28.17-16-2.76-1.61-4.92-1.69-6.82,1C73.13,145,69.87,149.68,66.58,154.41ZM165.37,33c-.12-.16-.29-.45-.33-.43a3.15,3.15,0,0,0-.81.48s.14.32.22.48ZM356,163.06l.38-.35a3.4,3.4,0,0,0-.69-.34c-.09,0-.24.2-.36.31Z"/><path class="cls-2" d="M116.19,320.92V294.18H111a3.88,3.88,0,0,0-3.9,3.92v22.82H98.86V294.18H93.64a3.82,3.82,0,0,0-2.73,1.13,3.71,3.71,0,0,0-1.16,2.74v22.87H81.54V285.76h8.21v.68a15.92,15.92,0,0,1,1.9-.46,11.61,11.61,0,0,1,2-.17h6.79a6.39,6.39,0,0,1,2.37.44,6.14,6.14,0,0,1,2,1.25,10.71,10.71,0,0,1,4-1.47,29.49,29.49,0,0,1,4.32-.32l1.09,0,1.14,0q.57,0,1.14,0l1.14,0a6.42,6.42,0,0,1,4.72,2,6.58,6.58,0,0,1,2,4.79v28.34Z"/><path class="cls-2" d="M156.61,318.67a7.44,7.44,0,0,1-5.51,2.3H132.17v-8.32h18.51v-5H140a7.37,7.37,0,0,1-5.46-2.32,7.66,7.66,0,0,1-2.28-5.56V285.91h8.21v13.4h10.26v-13.4h8.21v27.23A7.56,7.56,0,0,1,156.61,318.67Z"/><path class="cls-2" d="M188,320.92V285.81h8.22v26.75h14.85v8.36Z"/><path class="cls-2" d="M251,318.6a7.37,7.37,0,0,1-5.46,2.32h-19a7.34,7.34,0,0,1-5.45-2.32,7.64,7.64,0,0,1-2.28-5.56v-19.3a7.72,7.72,0,0,1,2.28-5.61,7.37,7.37,0,0,1,5.45-2.32h19a7.41,7.41,0,0,1,5.46,2.32,7.71,7.71,0,0,1,2.27,5.61V313A7.63,7.63,0,0,1,251,318.6Zm-5.94-24.42H227v18.38h18Z"/><path class="cls-2" d="M284.94,321H269.15a7.39,7.39,0,0,1-5.46-2.3,7.55,7.55,0,0,1-2.27-5.53v-19.3a7.68,7.68,0,0,1,2.27-5.61,7.38,7.38,0,0,1,5.46-2.33h21v8.37H269.63V312.7H282v-9.19h8.21v17.56C288.44,321,286.69,321,284.94,321Z"/><path class="cls-2" d="M322.39,320.92v-6.33H310.91v6.33H302.7v-6.33h-3.52v-8.37h3.52v-7.06a13.86,13.86,0,0,1,4.1-10,13.72,13.72,0,0,1,19.72,0,13.85,13.85,0,0,1,4.09,10v21.76Zm0-16.47v-5.29a5.68,5.68,0,0,0-1.68-4.13,5.65,5.65,0,0,0-8.12,0,5.68,5.68,0,0,0-1.68,4.13v7.06h11.48Z"/><path class="cls-2" d="M363.53,320.92V294.18h-9.16a7.36,7.36,0,0,0-7.31,7.35v19.39h-8.21V285.76h8.21v1.94a15.29,15.29,0,0,1,3.49-1.41,15,15,0,0,1,3.82-.48H364a7.39,7.39,0,0,1,5.48,2.3,7.67,7.67,0,0,1,2.25,5.58v27.23Z"/><path class="cls-2" d="M418.62,294.18v26.74h-8.21V294.18h-9.49v-8.37h27.19v8.37Z"/><path class="cls-2" d="M467.87,318.6a7.34,7.34,0,0,1-5.46,2.32h-19A7.37,7.37,0,0,1,438,318.6a7.64,7.64,0,0,1-2.28-5.56v-19.3a7.72,7.72,0,0,1,2.28-5.61,7.41,7.41,0,0,1,5.46-2.32h19a7.38,7.38,0,0,1,5.46,2.32,7.72,7.72,0,0,1,2.28,5.61V313A7.64,7.64,0,0,1,467.87,318.6Zm-5.93-24.42h-18v18.38h18Z"/><path class="cls-2" d="M517.39,317.25a11.57,11.57,0,0,1-8.52,3.63h-6.79a6.32,6.32,0,0,1-2.39-.46,7.32,7.32,0,0,1-2-1.24,13,13,0,0,1-2.9,1.24,11.6,11.6,0,0,1-3.22.46h-6.79a6.32,6.32,0,0,1-4.7-2,6.56,6.56,0,0,1-1.95-4.78V285.76h8.21v26.75h5.23a3.89,3.89,0,0,0,3.89-3.92V285.76h8.21v26.75h5.22a3.89,3.89,0,0,0,3.89-3.92V285.76H521v22.83A11.9,11.9,0,0,1,517.39,317.25Z"/><path class="cls-2" d="M553.56,320.92V294.18H544.4a7.36,7.36,0,0,0-7.31,7.35v19.39h-8.21V285.76h8.21v1.94a15.29,15.29,0,0,1,3.49-1.41,15,15,0,0,1,3.82-.48H554a7.39,7.39,0,0,1,5.48,2.3,7.64,7.64,0,0,1,2.26,5.58v27.23Z"/></g></g></svg>