<?xml version="1.0" encoding="UTF-8"?><svg xmlns="http://www.w3.org/2000/svg" viewBox="0 0 1163.37 878.18"><defs><style>.d{fill:#f05a28;}.e{fill:#fff;}.f{isolation:isolate;}</style></defs><g id="a"/><g id="b"><g id="c"><g><path class="d" d="M358.39,.05c5.54,4.16,3.55,8.45,.29,12.85-27.87,37.65-55.35,75.59-81.86,114.23-18.15,26.46-36.57,52.77-50.49,81.84-3.57,7.46-6.02,15.34-6.74,23.6-.86,9.81,1.78,16.08,10.85,23.4,32.83,26.48,71.62,42.65,106.51,65.36,3.86,2.51,7.06,3.74,10.91,.07,19.14-18.21,41.35-32.63,61.57-49.51,6.02-5.03,12.6-9.39,18.65-14.39,5.26-4.35,10.31-4.43,15.39-.2,15.93,13.27,33.81,24.26,47.61,40.03,4.8,5.48,10,4.91,15.14,1.4,13.74-9.38,27.3-19.04,40.87-28.67,1.79-1.27,3.5-2.84,4.78-4.61,24.82-34.14,63.52-51.69,94.23-78.78,6.57-5.8,12.34-2.98,17.97,2.89,32.26,33.62,64.64,67.12,97.27,100.38,11.26,11.48,23.28,22.22,35.08,33.16,5.57,5.17,10.49,6.31,18.29,1.55,32.71-19.95,66.19-38.64,99.25-58.04,7.73-4.53,13.39-11.77,20.84-16.97,5.78-4.04,4.26-12.25,3.04-18.83-3.41-18.38-12.54-34.37-22.18-49.97-8.71-14.1-16.86-28.61-27.68-41.31-.16-4.97-4.5-7.39-6.94-10.87-16.2-23.16-32.75-46.08-49.18-69.09-9.97-16.38-22.09-31.24-33.23-46.79-2.24-3.13-5.45-6.75-2.14-10.06,3.67-3.67,7.41-.52,10.59,2.3,69.25,61.32,128.34,131.24,177.05,209.85,2.96,4.78,6.67,6.43,10.83,5.46,11.27-2.64,17.32,4.13,22.66,11.75,7.86,11.22,27.8,36.41,14.79,50.18-4.13,4.37-4.39,9.37-1.53,14.51,38.45,69.23,65.38,146.55,83.43,223.25,2.89,12.28,5.18,24.7,7.45,37.11,.59,3.21,1.78,7.66-3.07,8.69-4.8,1.02-6.33-3.25-7.83-6.69-19.45-44.63-37.47-89.06-57.35-133.45-13.92-31.09-31.32-71.3-56.89-94.51-6.08-5.52-12.89-12.28-21.22-10.15-7.89,2.01-16.22,5.05-23.33,8.6-22.73,11.33-44.3,24.99-66.32,37.74-1.49,1.27-6.1,.71-3.69,4.14,1.4,2,4.23,0,5.55-2.26,1.26-.16,2.61-1.78,2.61-1.78,0,0,36.94-1.06,56.06-.97,20.38,.1,41.13-1.47,48.39,12.34,6.88,13.08,7.28,36.06-6.82,41.66,3.46,50.76,3.34,98.43,3.82,136.3,.03,2.16,.59,20.97,2.03,22.78,12.66,15.88,9.43,46.2-31.33,46.4-28.14,.14-57.12-.15-85.26-.05-2.5,0-6.4-1.83-7.32,2.03-.94,3.93,3.4,3.78,5.62,5.1,21.1,12.53,42.14,25.15,63.41,37.37,6.5,3.74,7.23,8.52,3.77,14.03-7.33,11.66-12.16,24.7-20.4,35.88-4.43,6-8.35,8.24-15.66,4.07-36.33-20.69-72.9-40.97-109.39-61.38-19.43-10.87-38.93-21.63-58.28-32.63-6.31-3.59-12.94-4.6-20.02-4.6-93.13,.05-186.27,.21-279.4-.16-14.6-.06-25.96,6.97-37.62,13.52-49.36,27.7-98.46,55.86-147.74,83.71-11.47,6.48-13.87,5.77-21.2-5.71-6.05-9.47-11.65-19.23-17.46-28.85-.08-2.55-.8-4.81-2.88-6.47-.45-3.88,.35-7.41,3-10.4,3.93,.51,7.38-.29,10.67-2.79,16.57-12.59,34.97-22.34,52.44-33.52,3.39-2.17,10.83-2.84,9.14-7.9-1.81-5.41-8.1-2.12-12.62-1.61-30.09,3.41-64.36-.61-96.73,.16-28.59,.68-36.03-27.27-26.27-45.53,3.48-6.52,4.95-12.56,4.92-19.64-.14-42.92-.07-85.84-.06-128.76,0-4.13,.24-8.18-2.91-11.63-10.98-12.04-8.8-26.24-4.17-39.4,3.82-10.86,14.26-14.48,25.51-14.49,26.07-.02,52.15,.02,78.22-.06,3.02,0,7.63,1.34,8.57-1.86,1.14-3.88-3.78-5.25-6.49-6.79-15.83-9.03-31.77-17.9-47.86-26.47-8.41-4.48-17.87-6.84-26.72-10.06-7.39-2.69-14.99,4.78-20.94,10.51-15.5,14.92-24.72,34-34.37,52.74-29.45,57.19-53.89,116.68-79.99,175.4-1.68,3.77-3.21,7.39-7.9,5.85-4.17-1.37-3.72-5.22-3-8.86,8.08-40.67,18.6-80.67,31.91-119.97,14.86-43.89,31.79-86.87,53.09-128.06,1.58-3.06,3.25-6.08,5.05-9,4.04-6.55,4.34-12.57-1.19-18.7-4.47-4.95-4.22-10.55-1.7-16.8,4.4-10.87,10.16-20.93,16.44-30.71,5.67-8.82,12.48-15.83,24.72-13.27,3.83,.8,6.79-.83,9.57-5.29,45.27-72.69,99.44-138.12,162.24-196.37,1.62-1.5,2.97-3.29,4.45-4.94,7.01-3.52,11.12-11.05,18.83-13.61V.05Zm-54.88,65.51c-4.92-1.01-6.14,1.59-5.68,5.83-3.76-.28-5.81,1.51-6.28,5.2-1.32,.79-2.95,1.3-3.93,2.4-39.07,43.92-76.19,89.32-106.33,140-1.44,2.42-6.16,4.52-.32,7.94,4.87,2.86,6.24,.79,8.63-3.06,22.38-36,46.12-71.07,72.07-104.63,10.53-13.62,20.78-27.46,31.15-41.2,3.35-1.05,4.49-3.66,4.81-6.84,3.35-.49,5.21-2.44,5.68-5.76,3.27-1.2,4.98-3.58,6.63-9.16-4.01,3.8-8.44,4.21-6.43,9.28Zm560.6,11.44c0-6.74-4.97-8.83-11.61-13.1,3.83,6.95,7.39,10.37,11.81,12.95-.29,4.57,3.93,6.37,6.11,9.2,34.47,44.83,68.67,89.83,97.32,138.75,1.88,3.21,4.41,5.11,8.53,2.15,4.06-2.91,1.83-4.85,.1-7.71-30.72-50.74-67.64-96.75-107.37-140.61-1.2-1.32-2.71-2.78-4.89-1.63h0Zm-426.07,230.4c-5.64,8.57-11.27,17.15-16.91,25.72-2.44,.72-3.76,2.37-4.05,4.87-9.06,8.73-16.24,19.02-24.09,28.76-.58-.6-1.15-1.19-1.73-1.79,1.45-5.47,4.65-10.08,7.25-15.01,3.86-7.29,10.08-13.7,9.35-22.89,.98-1.91,2.13-5.04,.21-5.54-2.46-.64-4.5,1.89-4.83,4.85-2.89,1.31-4.2,3.83-5.06,6.68-2.5,.7-3.71,2.45-4.02,4.93-5.61,6.18-10.31,13.65-16.99,18.27-16.4,11.35-23.26,28.44-30.4,45.61-2.11,1.03-3.51,2.49-3.03,5.07-.07,1.27-.13,2.53-.2,3.8-.58,2.98,.68,4.25,3.65,3.94,2.96,1.66,6.2,.98,9.31,.98,41.49,.05,82.98,.05,124.46,0,3.12,0,6.35,.67,9.33-.92h76.3c2.48,.32,4.97,.9,7.45,.9,78.77,.05,157.55,.05,236.32,.05,1.27,0,2.55,.04,3.81-.09,7.57-.77,10.23-5.16,5.24-10.64-16.82-18.45-30.54-39.92-51.7-54.22-12.05-8.15-22.02-17.88-30.36-30.18-10.3-15.2-18.84-32.16-34.47-43.2-8.47-5.99-16.55-12.3-23.57-20.07-2.96-3.28-4.85-10.42-9.87-8.68-4.34,1.51-4.25,8.41-5.67,13.13-4.35,14.49-6.51,30.26-13.81,43.09-8.37,14.71-23.8,24.17-37.19,35.43,6.38-21.78,22.36-40.83,17.21-65.26-2.75-.5-4.14,1.34-5.17,2.57-10.02,12.05-20.48,23.82-29.53,36.58-8.66,12.2-21.5,20-30.6,31.56-8.66,9.58-26.72,14.57-15.95,33.59,1.98,3.49-1.6,5.19-3.78,3.36-5.2-4.35-14.04-5.68-13.81-15.02,.09-3.88-2.44-3.83-5.15-3.54-9.95,1.06-16.26-5-20.97-12.18-12.96-19.73-25.39-39.88-47.35-51.06-4.23-2.16-5.15-10.6-10.82-7.56-3.83,2.05-5.54,8.08-8.16,12.35-.32,.52-.44,1.16-.66,1.75h.01Zm-202.06-33.27c-7.28,1.32-8.42,8.58-11.93,13.35-2.69,3.66,2.04,4.71,4.08,5.88,27.76,15.9,55.81,31.3,83.38,47.52,12.73,7.49,10.55,8.17,22.06-3.84,3.89-4.06,3.3-5.56-.91-7.97-26.94-15.43-53.85-30.92-80.72-46.48-5.12-2.96-9.91-6.52-15.96-8.47h0Zm580.99,59.57c4.45,2.6,7.5,4.16,10.3,6.08,7.67,5.24,14.52,4.11,22.37-.61,24.72-14.86,49.87-29.01,74.83-43.47,10.84-6.28,10.58-6.16,3.42-16.64-3.45-5.05-6.86-5.86-11.86-2.67-3.7,2.36-7.65,4.32-11.46,6.53-28.73,16.64-57.45,33.3-87.61,50.79h.01Zm0,294.01c.97,1.34,.69,3.23,2.91,4.16,13.39,5.61,24.76,14.74,37.65,21.37,21.45,11.03,41.95,23.87,63.02,35.68,2.3,1.29,4.96,5.17,8.31,1.7,2.67-2.76,4.87-6.04,4.49-10.13-.47-4.99-5.25-6.02-8.52-7.97-18.58-11.05-37.79-21.11-55.95-32.8-15.94-10.25-32.29-16.06-51.9-12.01h0Zm-472.02-.77c-20.07-2.4-37.11-1.85-51.72,10.37-3.09,2.58-7.04,4.13-10.59,6.16-17.43,9.97-35.01,19.69-52.17,30.11-3.62,2.2-9.97,3.95-5.67,12.05,4.92,9.26,9.68,4.84,14.93,1.87,19.16-10.86,38.26-21.81,57.35-32.8,15.4-8.86,30.74-17.82,47.86-27.76h0ZM1010.95,261.77c-3.59-10.84-10.44-18.99-16.67-27.45-2.9-3.94-6.58-3.56-10.79-1.09-15.67,9.18-31.43,18.2-47.35,26.94-5.5,3.02-5.3,7.46-2.39,10.89,2.91,3.43,2.98,12.66,11.84,7.59,11.4-6.52,23.64-11.78,34.29-19.33,11.1-7.86,20.16-10.55,28.77,2.43,.1,.15,.61,.02,2.29,.02h0Zm-864.92-3.07c4.06,2.83,6.33,.93,7.76-1.64,3.93-7.09,8.73-6.31,14.81-2.76,14.05,8.21,28.51,15.71,42.45,24.08,8.74,5.25,9.01-3.07,11.99-6.74,3.42-4.22,3.9-8.28-1.9-11.51-15.81-8.78-31.57-17.67-47.18-26.8-4.62-2.71-8.24-2.85-11.42,1.67-5.53,7.86-10.99,15.76-16.5,23.68v.02ZM311.51,55.33c-.2-.27-.48-.75-.55-.72-.48,.2-.95,.48-1.35,.81-.06,.05,.24,.53,.37,.81l1.54-.9h-.01Zm319.29,217.86l.64-.58c-.39-.2-.76-.46-1.17-.56-.15-.04-.39,.33-.59,.51l1.12,.63h0Z"/><g><path class="e" d="M229.13,537.63v-44.8h-8.75c-1.8,0-3.34,.64-4.61,1.91s-1.91,2.82-1.91,4.66v38.24h-13.76v-44.8h-8.74c-1.75,0-3.28,.64-4.58,1.91s-1.95,2.8-1.95,4.58v38.32h-13.75v-58.9h13.75v1.14c1.06-.32,2.12-.58,3.18-.77s2.17-.29,3.34-.29h11.37c1.38,0,2.7,.24,3.98,.73,1.27,.48,2.41,1.19,3.41,2.11,2.12-1.3,4.37-2.12,6.76-2.47,2.38-.35,4.79-.53,7.23-.53,.58,0,1.19,.01,1.83,.04s1.27,.04,1.91,.04,1.27,.01,1.91,.04,1.27,.04,1.91,.04c3.07,0,5.71,1.11,7.91,3.32,2.2,2.22,3.3,4.89,3.3,8.02v47.47h-13.74Z"/><path class="e" d="M296.84,533.86c-2.54,2.57-5.62,3.85-9.22,3.85h-31.72v-13.94h31.01v-8.35h-17.97c-3.55,0-6.6-1.3-9.14-3.89-2.54-2.59-3.81-5.7-3.81-9.32v-23.25h13.75v22.44h17.17v-22.44h13.76v45.61c0,3.62-1.27,6.71-3.82,9.28h-.01Z"/><path class="e" d="M349.44,537.63v-58.82h13.76v44.8h24.88v14.02h-38.64Z"/><path class="e" d="M454.93,533.74c-2.54,2.59-5.59,3.89-9.15,3.89h-31.8c-3.55,0-6.6-1.3-9.14-3.89s-3.82-5.7-3.82-9.32v-32.33c0-3.67,1.27-6.8,3.82-9.4,2.54-2.59,5.59-3.89,9.14-3.89h31.8c3.55,0,6.6,1.3,9.15,3.89,2.54,2.59,3.81,5.73,3.81,9.4v32.33c0,3.62-1.27,6.72-3.81,9.32Zm-9.94-40.92h-30.21v30.79h30.21v-30.79h0Z"/><path class="e" d="M511.8,537.79h-26.44c-3.55,0-6.6-1.28-9.14-3.85s-3.81-5.66-3.81-9.28v-32.33c0-3.68,1.27-6.81,3.81-9.4s5.59-3.89,9.14-3.89h35.22v14.02h-34.42v30.79h20.67v-15.39h13.76v29.41c-2.91-.05-5.85-.08-8.78-.08h-.01Z"/><path class="e" d="M574.54,537.63v-10.61h-19.24v10.61h-13.76v-10.61h-5.88v-14.01h5.88v-11.83c0-6.54,2.29-12.14,6.88-16.81,4.59-4.67,10.08-7.01,16.5-7.01s11.98,2.33,16.54,7.01c4.56,4.67,6.84,10.28,6.84,16.81v36.46h-13.76Zm0-27.6v-8.87c0-2.7-.94-5.01-2.82-6.93-1.88-1.92-4.15-2.88-6.8-2.88s-4.92,.96-6.8,2.88c-1.88,1.91-2.82,4.23-2.82,6.93v11.83h19.24v-2.96Z"/><path class="e" d="M643.45,537.63v-44.8h-15.35c-3.34,0-6.21,1.2-8.63,3.61-2.41,2.4-3.62,5.31-3.62,8.71v32.49h-13.76v-58.9h13.76v3.24c1.85-1.03,3.8-1.81,5.84-2.35,2.04-.54,4.18-.81,6.4-.81h16.14c3.6,0,6.67,1.28,9.18,3.85,2.52,2.57,3.78,5.68,3.78,9.36v45.61h-13.74Z"/><path class="e" d="M735.73,492.82v44.8h-13.76v-44.8h-15.9v-14.02h45.56v14.02h-15.9Z"/><path class="e" d="M818.24,533.74c-2.54,2.59-5.59,3.89-9.15,3.89h-31.8c-3.55,0-6.6-1.3-9.14-3.89-2.54-2.59-3.82-5.7-3.82-9.32v-32.33c0-3.67,1.27-6.8,3.82-9.4,2.54-2.59,5.59-3.89,9.14-3.89h31.8c3.55,0,6.6,1.3,9.15,3.89,2.54,2.59,3.81,5.73,3.81,9.4v32.33c0,3.62-1.27,6.72-3.81,9.32Zm-9.94-40.92h-30.21v30.79h30.21v-30.79h0Z"/><path class="e" d="M901.18,531.47c-4,4.05-8.76,6.08-14.27,6.08h-11.37c-1.43,0-2.77-.26-4.02-.77s-2.37-1.2-3.38-2.06c-1.48,.86-3.1,1.55-4.85,2.06s-3.55,.77-5.4,.77h-11.37c-3.07,0-5.7-1.11-7.87-3.32s-3.26-4.89-3.26-8.02v-47.48h13.76v44.8h8.75c1.8,0,3.34-.64,4.61-1.91s1.91-2.82,1.91-4.66v-38.24h13.76v44.8h8.74c1.8,0,3.34-.64,4.61-1.91s1.91-2.82,1.91-4.66v-38.24h13.75v38.24c0,5.61-2,10.45-6,14.5v.02Z"/><path class="e" d="M961.77,537.63v-44.8h-15.35c-3.34,0-6.21,1.2-8.63,3.61-2.41,2.4-3.62,5.31-3.62,8.71v32.49h-13.76v-58.9h13.76v3.24c1.85-1.03,3.8-1.81,5.84-2.35,2.04-.54,4.18-.81,6.4-.81h16.14c3.6,0,6.67,1.28,9.18,3.85,2.52,2.57,3.78,5.68,3.78,9.36v45.61h-13.74Z"/></g></g><g class="f" transform="translate(0 861.11)"><g class="f"><path d="M0,856.74v-6.64H26.38c1.7,0,2.55-.85,2.55-2.55v-9.36c0-1.7-.85-2.55-2.55-2.55H.85v-33.18H38.63v11.06H13.1v11.06h13.78c9.53,0,14.29,4.76,14.29,14.29v8c0,9.53-4.76,14.29-14.29,14.29H5.7l-5.7-4.42Z"/><path d="M50.03,846.87v-30.12c0-9.53,4.76-14.29,14.29-14.29h11.74c9.53,0,14.29,4.76,14.29,14.29v30.12c0,9.53-4.76,14.29-14.29,14.29h-11.74c-9.53,0-14.29-4.76-14.29-14.29Zm12.25,.68c0,1.7,.85,2.55,2.55,2.55h10.72c1.7,0,2.55-.85,2.55-2.55v-31.48c0-1.7-.85-2.55-2.55-2.55h-10.72c-1.7,0-2.55,.85-2.55,2.55v31.48Z"/><path d="M121.32,861.16v-44.92h51.22c9.19,0,13.78,4.59,13.78,13.78v31.14h-11.74v-31.99c0-1.81-.91-2.72-2.72-2.72h-12.17v34.71h-11.74v-34.71h-14.89v34.71h-11.74Z"/><path d="M198.06,808.92v-11.4h12.08v11.4h-12.08Zm.17,52.24v-44.92h11.74v44.92h-11.74Z"/><path d="M221.89,844.82v-46.62h11.74v47.81c0,3.52,1.81,5.45,5.45,5.79v10.21c-11.46,0-17.19-5.73-17.19-17.19Z"/><path d="M247.92,847.38v-17.36c0-9.19,4.59-13.78,13.78-13.78h11.06c9.19,0,13.78,4.59,13.78,13.78v13.1h-26.89v5.1c0,1.82,.91,2.72,2.72,2.72h22.46v6.38l-5.1,3.83h-18.04c-9.19,0-13.78-4.59-13.78-13.78Zm11.74-13.44h15.14v-4.76c0-1.81-.91-2.72-2.72-2.72h-9.7c-1.82,0-2.72,.91-2.72,2.72v4.76Z"/><path d="M296.58,857.33v-6.38h19.57c1.93,0,2.89-1.08,2.89-3.23s-.85-3.46-2.55-3.74l-9.19-1.53c-7.15-1.19-10.72-5.33-10.72-12.42,0-9.19,4.59-13.78,13.78-13.78h13.19l5.11,3.83v6.38h-17.53c-1.93,0-2.89,1.08-2.89,3.23s.85,3.46,2.55,3.74l9.19,1.53c7.15,1.19,10.72,5.33,10.72,12.42,0,9.19-4.59,13.78-13.78,13.78h-15.23l-5.1-3.83Z"/><path d="M360.05,856.74v-6.64h26.38c1.7,0,2.55-.85,2.55-2.55v-6.21c0-1.59-.71-2.52-2.13-2.81l-16.59-3.32c-6.81-1.36-10.21-5.93-10.21-13.7v-4.76c0-9.53,4.76-14.29,14.29-14.29h19.48l5.7,4.42v6.64h-24.67c-1.7,0-2.55,.85-2.55,2.55v5.53c0,1.59,.71,2.52,2.13,2.81l16.59,3.32c6.81,1.36,10.21,5.93,10.21,13.7v5.45c0,9.53-4.76,14.29-14.29,14.29h-21.18l-5.7-4.42Z"/><path d="M411.78,861.16v-62.96h11.74v34.97l15.57-16.93h11.57l.94,1.96-15.57,16.76,16.76,24.25-.94,1.96h-11.49l-12.08-17.78-4.76,5.19v12.59h-11.74Z"/><path d="M472.53,861.16c-9.19,0-13.78-4.51-13.78-13.53s4.59-13.53,13.78-13.53h11.74v-4.93c0-1.81-.91-2.72-2.72-2.72h-18.04v-6.38l5.11-3.83h13.61c9.19,0,13.78,4.59,13.78,13.78v31.14h-23.48Zm-2.04-12.93c0,1.82,.91,2.72,2.72,2.72h11.06v-7.66h-11.06c-1.82,0-2.72,.91-2.72,2.72v2.21Z"/><path d="M507.58,847.38v-44.92h11.74v13.78h14.63v10.21h-14.63v21.78c0,1.82,.91,2.72,2.72,2.72h12.76v6.38l-5.1,3.83h-8.34c-9.19,0-13.78-4.59-13.78-13.78Z"/><path d="M543.31,847.38v-17.36c0-9.19,4.59-13.78,13.78-13.78h11.06c9.19,0,13.78,4.59,13.78,13.78v13.1h-26.88v5.1c0,1.82,.91,2.72,2.72,2.72h22.46v6.38l-5.11,3.83h-18.04c-9.19,0-13.78-4.59-13.78-13.78Zm11.74-13.44h15.14v-4.76c0-1.81-.91-2.72-2.72-2.72h-9.7c-1.82,0-2.72,.91-2.72,2.72v4.76Z"/><path d="M593.51,861.16v-62.96h11.74v18.04h13.1c9.19,0,13.78,4.59,13.78,13.78v17.36c0,9.19-4.59,13.78-13.78,13.78h-24.84Zm11.74-10.21h12.42c1.82,0,2.72-.91,2.72-2.72v-19.06c0-1.81-.91-2.72-2.72-2.72h-12.42v24.5Z"/><path d="M643.02,847.38v-17.36c0-9.19,4.59-13.78,13.78-13.78h11.91c9.19,0,13.78,4.59,13.78,13.78v17.36c0,9.19-4.59,13.78-13.78,13.78h-11.91c-9.19,0-13.78-4.59-13.78-13.78Zm11.74,.85c0,1.82,.91,2.72,2.72,2.72h10.55c1.81,0,2.72-.91,2.72-2.72v-19.06c0-1.81-.91-2.72-2.72-2.72h-10.55c-1.82,0-2.72,.91-2.72,2.72v19.06Z"/><path d="M705.47,861.16c-9.19,0-13.78-4.51-13.78-13.53s4.59-13.53,13.78-13.53h11.74v-4.93c0-1.81-.91-2.72-2.72-2.72h-18.04v-6.38l5.11-3.83h13.61c9.19,0,13.78,4.59,13.78,13.78v31.14h-23.48Zm-2.04-12.93c0,1.82,.91,2.72,2.72,2.72h11.06v-7.66h-11.06c-1.82,0-2.72,.91-2.72,2.72v2.21Z"/><path d="M740.52,861.16v-39.14c2.1-3.86,6.13-5.79,12.08-5.79h9.19l5.1,3.83v6.38h-11.49c-1.53,0-2.58,.37-3.15,1.11v33.61h-11.74Z"/><path d="M774.56,847.38v-17.36c0-9.19,4.59-13.78,13.78-13.78h13.1v-18.04h11.74v62.96h-24.84c-9.19,0-13.78-4.59-13.78-13.78Zm11.74,.85c0,1.82,.91,2.72,2.72,2.72h12.42v-24.5h-12.42c-1.82,0-2.72,.91-2.72,2.72v19.06Z"/><path d="M825.26,808.92v-11.4h12.08v11.4h-12.08Zm.17,52.24v-44.92h11.74v44.92h-11.74Z"/><path d="M849.43,861.16v-44.92h24.84c9.19,0,13.78,4.59,13.78,13.78v31.14h-11.74v-31.99c0-1.81-.91-2.72-2.72-2.72h-12.42v34.71h-11.74Z"/><path d="M898.94,847.38v-17.36c0-9.19,4.59-13.78,13.78-13.78h24.84v48.16c0,9.19-4.59,13.78-13.78,13.78h-15.91l-5.1-3.83v-6.38h20.33c1.81,0,2.72-.91,2.72-2.72v-4.08h-13.1c-9.19,0-13.78-4.59-13.78-13.78Zm11.74,.85c0,1.82,.91,2.72,2.72,2.72h12.42v-24.5h-12.42c-1.82,0-2.72,.91-2.72,2.72v19.06Z"/><path d="M970.75,861.16v-58.71h28.59c9.53,0,14.29,4.76,14.29,14.29v9.7c0,7.09-2.64,11.54-7.91,13.36l9.61,18.8-1.45,2.55h-10.55l-10.38-20.42h-9.95v20.42h-12.25Zm12.25-31.48h15.82c1.7,0,2.55-.85,2.55-2.55v-11.06c0-1.7-.85-2.55-2.55-2.55h-15.82v16.17Z"/><path d="M1036.43,861.16c-9.19,0-13.78-4.51-13.78-13.53s4.59-13.53,13.78-13.53h11.74v-4.93c0-1.81-.91-2.72-2.72-2.72h-18.04v-6.38l5.11-3.83h13.61c9.19,0,13.78,4.59,13.78,13.78v31.14h-23.48Zm-2.04-12.93c0,1.82,.91,2.72,2.72,2.72h11.06v-7.66h-11.06c-1.82,0-2.72,.91-2.72,2.72v2.21Z"/><path d="M1071.48,844.82v-46.62h11.74v47.81c0,3.52,1.81,5.45,5.45,5.79v10.21c-11.46,0-17.19-5.73-17.19-17.19Z"/><path d="M1097.85,844.82v-46.62h11.74v47.81c0,3.52,1.81,5.45,5.45,5.79v10.21c-11.46,0-17.19-5.73-17.19-17.19Z"/><path d="M1119.12,818.02l1.19-1.79h10.12l10.38,34.71h.85l10.38-34.71h10.12l1.19,1.79-18.8,60.15h-10.12l-1.19-1.79,5.11-15.23h-5.7l-13.53-43.14Z"/></g></g></g></g></svg>